<svg xmlns="http://www.w3.org/2000/svg" width="36" height="36" fill="none"><path fill="#FF3D00" d="M23.625 13.5h-18a3.375 3.375 0 0 0-3.375 3.375v7.875a3.375 3.375 0 0 0 3.375 3.375h18A3.375 3.375 0 0 0 27 24.75v-7.875a3.375 3.375 0 0 0-3.375-3.375ZM33.75 25.875 27 22.5v-3.375l6.75-3.375v10.125ZM20.25 11.25a4.5 4.5 0 1 0 0-9 4.5 4.5 0 0 0 0 9ZM9 11.25A3.375 3.375 0 1 0 9 4.5a3.375 3.375 0 0 0 0 6.75Z"/><path fill="#fff" d="M34.046 15.272a.564.564 0 0 0-.547-.025l-5.937 2.968v-1.34a3.942 3.942 0 0 0-3.937-3.938h-18a3.942 3.942 0 0 0-3.938 3.938v7.875a3.942 3.942 0 0 0 3.938 3.938h7.642l-4.665 4.664a.563.563 0 0 0 .796.796l5.227-5.228 5.227 5.228a.562.562 0 0 0 .796-.796l-4.665-4.664h7.642a3.942 3.942 0 0 0 3.938-3.938v-1.34l5.936 2.968a.562.562 0 0 0 .813-.503V15.75a.563.563 0 0 0-.266-.478Zm-7.608 9.478a2.816 2.816 0 0 1-2.813 2.813h-18a2.816 2.816 0 0 1-2.813-2.813v-7.875a2.816 2.816 0 0 1 2.813-2.813h18a2.816 2.816 0 0 1 2.813 2.813v7.875Zm6.75.215-5.626-2.813v-2.68l5.625-2.812v8.305ZM20.25 11.813a5.062 5.062 0 1 0 0-10.125 5.062 5.062 0 0 0 0 10.124Zm0-9a3.938 3.938 0 1 1 0 7.875 3.938 3.938 0 0 1 0-7.876Zm-11.25 9a3.938 3.938 0 1 0 0-7.876 3.938 3.938 0 0 0 0 7.876Zm0-6.75a2.812 2.812 0 1 1 0 5.624 2.812 2.812 0 0 1 0-5.624Z"/></svg>