<svg xmlns="http://www.w3.org/2000/svg" width="165" height="36" fill="none"><path fill="#FF3D00" d="M164.597 20.273c0 1.943-.378 3.582-1.134 4.917-.756 1.33-1.775 2.338-3.06 3.026-1.284.682-2.715 1.023-4.295 1.023-1.591 0-3.028-.344-4.312-1.032-1.279-.693-2.296-1.704-3.052-3.034-.75-1.335-1.125-2.968-1.125-4.9 0-1.943.375-3.58 1.125-4.91.756-1.335 1.773-2.343 3.052-3.025 1.284-.687 2.721-1.031 4.312-1.031 1.58 0 3.011.344 4.295 1.031 1.285.682 2.304 1.69 3.06 3.026.756 1.33 1.134 2.966 1.134 4.909Zm-4.875 0c0-1.046-.14-1.926-.418-2.642-.273-.722-.679-1.267-1.219-1.637-.534-.375-1.193-.562-1.977-.562s-1.446.187-1.986.562c-.534.37-.94.915-1.219 1.637-.272.716-.409 1.596-.409 2.642 0 1.045.137 1.929.409 2.65.279.716.685 1.262 1.219 1.637.54.369 1.202.554 1.986.554s1.443-.185 1.977-.554c.54-.375.946-.92 1.219-1.637.278-.721.418-1.605.418-2.65ZM129.688 29V11.546h4.738v6.818h6.273v-6.819h4.739V29h-4.739v-6.818h-6.273V29h-4.738ZM112.344 11.546h4.738v9.136h.137l6.204-9.136h4.023V29h-4.739v-9.17h-.102L116.298 29h-3.954V11.546ZM105.123 29l-5.352-7.057h-.665V29h-4.739V11.546h4.739v6.579h.614l5.011-6.58h5.966l-6.648 8.387L111.072 29h-5.949Z"/><path fill="#fff" d="M92.175 20.273c0 1.943-.378 3.582-1.134 4.917-.755 1.33-1.775 2.338-3.06 3.026-1.283.682-2.715 1.023-4.295 1.023-1.59 0-3.028-.344-4.312-1.032-1.279-.693-2.296-1.704-3.051-3.034-.75-1.335-1.125-2.968-1.125-4.9 0-1.943.375-3.58 1.125-4.91.755-1.335 1.772-2.343 3.05-3.025 1.285-.687 2.722-1.031 4.313-1.031 1.58 0 3.011.344 4.296 1.031 1.284.682 2.304 1.69 3.06 3.026.755 1.33 1.133 2.966 1.133 4.909Zm-4.875 0c0-1.046-.14-1.926-.418-2.642-.273-.722-.679-1.267-1.219-1.637-.534-.375-1.193-.562-1.977-.562s-1.446.187-1.986.562c-.534.37-.94.915-1.218 1.637-.273.716-.41 1.596-.41 2.642 0 1.045.137 1.929.41 2.65.278.716.684 1.262 1.218 1.637.54.369 1.202.554 1.986.554s1.443-.185 1.977-.554c.54-.375.946-.92 1.22-1.637.278-.721.417-1.605.417-2.65ZM59.516 29V11.546h7.534c1.295 0 2.429.255 3.4.767a5.566 5.566 0 0 1 2.267 2.156c.54.926.81 2.008.81 3.247 0 1.25-.278 2.332-.835 3.247-.551.915-1.327 1.62-2.327 2.114-.994.494-2.156.741-3.486.741h-4.5v-3.682h3.546c.556 0 1.031-.096 1.423-.29.398-.198.702-.48.912-.843.216-.364.324-.793.324-1.287 0-.5-.108-.926-.324-1.279a2.032 2.032 0 0 0-.912-.818c-.392-.193-.867-.29-1.423-.29h-1.67V29h-4.74ZM56.484 11.546V29h-4.67V15.296h-5.898V29h-4.67V11.546h15.238Z"/><path fill="#FF3D00" d="M23.625 13.5h-18a3.375 3.375 0 0 0-3.375 3.375v7.875a3.375 3.375 0 0 0 3.375 3.375h18A3.375 3.375 0 0 0 27 24.75v-7.875a3.375 3.375 0 0 0-3.375-3.375ZM33.75 25.875 27 22.5v-3.375l6.75-3.375v10.125ZM20.25 11.25a4.5 4.5 0 1 0 0-9 4.5 4.5 0 0 0 0 9ZM9 11.25A3.375 3.375 0 1 0 9 4.5a3.375 3.375 0 0 0 0 6.75Z"/><path fill="#fff" d="M34.046 15.272a.564.564 0 0 0-.547-.025l-5.937 2.968v-1.34a3.942 3.942 0 0 0-3.937-3.938h-18a3.942 3.942 0 0 0-3.938 3.938v7.875a3.942 3.942 0 0 0 3.938 3.938h7.642l-4.665 4.664a.563.563 0 0 0 .796.796l5.227-5.228 5.227 5.228a.562.562 0 0 0 .796-.796l-4.665-4.664h7.642a3.942 3.942 0 0 0 3.938-3.938v-1.34l5.936 2.968a.562.562 0 0 0 .813-.503V15.75a.563.563 0 0 0-.266-.478Zm-7.608 9.478a2.816 2.816 0 0 1-2.813 2.813h-18a2.816 2.816 0 0 1-2.813-2.813v-7.875a2.816 2.816 0 0 1 2.813-2.813h18a2.816 2.816 0 0 1 2.813 2.813v7.875Zm6.75.215-5.626-2.813v-2.68l5.625-2.812v8.305ZM20.25 11.813a5.062 5.062 0 1 0 0-10.125 5.062 5.062 0 0 0 0 10.124Zm0-9a3.938 3.938 0 1 1 0 7.875 3.938 3.938 0 0 1 0-7.876Zm-11.25 9a3.938 3.938 0 1 0 0-7.876 3.938 3.938 0 0 0 0 7.876Zm0-6.75a2.812 2.812 0 1 1 0 5.624 2.812 2.812 0 0 1 0-5.624Z"/></svg>